<svg xmlns="http://www.w3.org/2000/svg" viewBox="0 0 1800 1260" width="100%">
<rect width="1800" height="1260" fill="#f1e9d8"/>
<circle cx="216" cy="205" r="208" fill="#df7d65" opacity="0.30"/>
<circle cx="150" cy="862" r="82" fill="#a9c1d6" opacity="0.50"/>
<circle cx="505" cy="768" r="64" fill="#e7d24a" opacity="0.28"/>
<circle cx="505" cy="768" r="50" fill="#df7d65" opacity="0.25"/>
<circle cx="205" cy="1015" r="34" fill="#c9a23a" opacity="0.28"/>
<circle cx="1406" cy="250" r="60" fill="#c9a23a" opacity="0.30"/>
<polygon points="605,352 258,632 622,648" fill="#a9c1d6" opacity="0.55"/>
<polygon points="770,470 1085,648 720,648" fill="#bb9450" opacity="0.55"/>
<polygon points="700,430 1050,640 660,690" fill="#5f7e54" opacity="0.16"/>
<rect x="905" y="300" width="92" height="78" fill="#e6b6c4" opacity="0.55"/>
<g transform="rotate(-9 300 470)"><rect x="300" y="470" width="24" height="240" fill="#1c0f14"/><rect x="324" y="470" width="24" height="240" fill="#f6f1ec"/><rect x="348" y="470" width="24" height="240" fill="#5f7e54"/><rect x="372" y="470" width="24" height="240" fill="#f6f1ec"/><rect x="396" y="470" width="24" height="240" fill="#bb9450"/><rect x="420" y="470" width="24" height="240" fill="#f6f1ec"/><rect x="444" y="470" width="24" height="240" fill="#a9c1d6"/><rect x="468" y="470" width="24" height="240" fill="#f6f1ec"/><rect x="492" y="470" width="24" height="240" fill="#7a4a24"/><rect x="420" y="470" width="24" height="22" fill="#1c0f14"/><rect x="444" y="470" width="24" height="22" fill="#f6f1ec"/><rect x="468" y="470" width="24" height="22" fill="#1c0f14"/><rect x="492" y="470" width="24" height="22" fill="#f6f1ec"/><rect x="516" y="470" width="24" height="22" fill="#1c0f14"/><rect x="420" y="492" width="24" height="22" fill="#f6f1ec"/><rect x="444" y="492" width="24" height="22" fill="#1c0f14"/><rect x="468" y="492" width="24" height="22" fill="#f6f1ec"/><rect x="492" y="492" width="24" height="22" fill="#1c0f14"/><rect x="516" y="492" width="24" height="22" fill="#f6f1ec"/><rect x="420" y="514" width="24" height="22" fill="#1c0f14"/><rect x="444" y="514" width="24" height="22" fill="#f6f1ec"/><rect x="468" y="514" width="24" height="22" fill="#1c0f14"/><rect x="492" y="514" width="24" height="22" fill="#f6f1ec"/><rect x="516" y="514" width="24" height="22" fill="#1c0f14"/><rect x="420" y="536" width="24" height="22" fill="#f6f1ec"/><rect x="444" y="536" width="24" height="22" fill="#1c0f14"/><rect x="468" y="536" width="24" height="22" fill="#f6f1ec"/><rect x="492" y="536" width="24" height="22" fill="#1c0f14"/><rect x="516" y="536" width="24" height="22" fill="#f6f1ec"/><rect x="420" y="558" width="24" height="22" fill="#1c0f14"/><rect x="444" y="558" width="24" height="22" fill="#f6f1ec"/><rect x="468" y="558" width="24" height="22" fill="#1c0f14"/><rect x="492" y="558" width="24" height="22" fill="#f6f1ec"/><rect x="516" y="558" width="24" height="22" fill="#1c0f14"/><rect x="420" y="580" width="24" height="22" fill="#f6f1ec"/><rect x="444" y="580" width="24" height="22" fill="#1c0f14"/><rect x="468" y="580" width="24" height="22" fill="#f6f1ec"/><rect x="492" y="580" width="24" height="22" fill="#1c0f14"/><rect x="516" y="580" width="24" height="22" fill="#f6f1ec"/><rect x="420" y="602" width="24" height="22" fill="#1c0f14"/><rect x="444" y="602" width="24" height="22" fill="#f6f1ec"/><rect x="468" y="602" width="24" height="22" fill="#1c0f14"/><rect x="492" y="602" width="24" height="22" fill="#f6f1ec"/><rect x="516" y="602" width="24" height="22" fill="#1c0f14"/><rect x="420" y="624" width="24" height="22" fill="#f6f1ec"/><rect x="444" y="624" width="24" height="22" fill="#1c0f14"/><rect x="468" y="624" width="24" height="22" fill="#f6f1ec"/><rect x="492" y="624" width="24" height="22" fill="#1c0f14"/><rect x="516" y="624" width="24" height="22" fill="#f6f1ec"/></g>
<circle cx="216" cy="205" r="172" fill="#1c0f14"/>
<circle cx="210" cy="218" r="84" fill="#a878b8"/>
<circle cx="300" cy="470" r="72" fill="#c1392a"/>
<line x1="1040" y1="58" x2="545" y2="1015" stroke="#241a1e" stroke-width="4" stroke-linecap="round"/>
<line x1="1040" y1="58" x2="1012" y2="1148" stroke="#241a1e" stroke-width="4" stroke-linecap="round"/>
<line x1="820" y1="150" x2="1095" y2="650" stroke="#241a1e" stroke-width="2.5" stroke-linecap="round"/>
<line x1="258" y1="1010" x2="1655" y2="1045" stroke="#241a1e" stroke-width="3" stroke-linecap="round"/>
<line x1="560" y1="150" x2="775" y2="560" stroke="#241a1e" stroke-width="2" stroke-linecap="round"/>
<line x1="610" y1="120" x2="545" y2="520" stroke="#241a1e" stroke-width="2" stroke-linecap="round"/>
<line x1="250" y1="300" x2="1150" y2="640" stroke="#241a1e" stroke-width="2" stroke-linecap="round"/>
<line x1="905" y1="1015" x2="1665" y2="560" stroke="#241a1e" stroke-width="3" stroke-linecap="round"/>
<line x1="965" y1="1085" x2="1700" y2="640" stroke="#241a1e" stroke-width="2" stroke-linecap="round"/>
<line x1="1025" y1="985" x2="1645" y2="620" stroke="#241a1e" stroke-width="2" stroke-linecap="round"/>
<line x1="700" y1="1080" x2="1340" y2="690" stroke="#241a1e" stroke-width="2" stroke-linecap="round"/>
<line x1="408" y1="728" x2="1340" y2="690" stroke="#c1392a" stroke-width="4" stroke-linecap="round"/>
<line x1="560" y1="648" x2="1185" y2="930" stroke="#c1392a" stroke-width="3" stroke-linecap="round"/>
<line x1="900" y1="470" x2="1500" y2="1010" stroke="#7a4a24" stroke-width="4" stroke-linecap="round"/>
<line x1="862" y1="505" x2="1440" y2="1092" stroke="#7a4a24" stroke-width="3" stroke-linecap="round"/>
<line x1="1180" y1="560" x2="1792" y2="150" stroke="#241a1e" stroke-width="2" stroke-linecap="round"/>
<line x1="1180" y1="582" x2="1792" y2="172" stroke="#241a1e" stroke-width="2" stroke-linecap="round"/>
<line x1="1180" y1="604" x2="1792" y2="194" stroke="#241a1e" stroke-width="2" stroke-linecap="round"/>
<line x1="1180" y1="626" x2="1792" y2="216" stroke="#241a1e" stroke-width="2" stroke-linecap="round"/>
<g transform="rotate(-34 1350 360)"><rect x="1330" y="360" width="26" height="26" fill="#1c0f14"/><rect x="1356" y="360" width="26" height="26" fill="#f6f1ec"/><rect x="1382" y="360" width="26" height="26" fill="#1c0f14"/><rect x="1408" y="360" width="26" height="26" fill="#f6f1ec"/><rect x="1434" y="360" width="26" height="26" fill="#1c0f14"/><rect x="1460" y="360" width="26" height="26" fill="#f6f1ec"/><rect x="1486" y="360" width="26" height="26" fill="#1c0f14"/><rect x="1330" y="386" width="26" height="26" fill="#f6f1ec"/><rect x="1356" y="386" width="26" height="26" fill="#1c0f14"/><rect x="1382" y="386" width="26" height="26" fill="#f6f1ec"/><rect x="1408" y="386" width="26" height="26" fill="#1c0f14"/><rect x="1434" y="386" width="26" height="26" fill="#f6f1ec"/><rect x="1460" y="386" width="26" height="26" fill="#1c0f14"/><rect x="1486" y="386" width="26" height="26" fill="#f6f1ec"/></g>
<rect x="1260" y="440" width="20" height="20" fill="#241a1e" transform="rotate(-34 1260 440)"/>
<rect x="1352" y="386" width="20" height="20" fill="#241a1e" transform="rotate(-34 1352 386)"/>
<rect x="1444" y="332" width="20" height="20" fill="#241a1e" transform="rotate(-34 1444 332)"/>
<rect x="1536" y="278" width="20" height="20" fill="#241a1e" transform="rotate(-34 1536 278)"/>
<rect x="1628" y="224" width="20" height="20" fill="#241a1e" transform="rotate(-34 1628 224)"/>
<line x1="560" y1="100" x2="560" y2="240" stroke="#241a1e" stroke-width="2" stroke-linecap="round"/>
<line x1="528" y1="130" x2="592" y2="130" stroke="#241a1e" stroke-width="2" stroke-linecap="round"/>
<line x1="534" y1="152" x2="586" y2="152" stroke="#241a1e" stroke-width="2" stroke-linecap="round"/>
<line x1="1280" y1="80" x2="1280" y2="220" stroke="#241a1e" stroke-width="2" stroke-linecap="round"/>
<line x1="1248" y1="110" x2="1312" y2="110" stroke="#241a1e" stroke-width="2" stroke-linecap="round"/>
<line x1="1254" y1="132" x2="1306" y2="132" stroke="#241a1e" stroke-width="2" stroke-linecap="round"/>
<path d="M860,300 Q1015,90 1170,300" fill="none" stroke="#241a1e" stroke-width="3"/>
<path d="M840,355 Q1015,150 1195,360" fill="none" stroke="#241a1e" stroke-width="2"/>
<path d="M462,452 Q470,378 548,378 Q612,378 632,430" fill="none" stroke="#1c0f14" stroke-width="11" stroke-linecap="round"/>
<path d="M240,575 Q330,512 392,592 T556,612" fill="none" stroke="#241a1e" stroke-width="6"/>
<path d="M250,640 Q298,706 252,772" fill="none" stroke="#241a1e" stroke-width="6"/>
<path d="M905,470 Q948,428 998,475" fill="none" stroke="#c1392a" stroke-width="3"/>
<path d="M918,488 Q960,446 1010,492" fill="none" stroke="#c1392a" stroke-width="3"/>
<path d="M1060,460 Q1100,420 1150,465" fill="none" stroke="#c1392a" stroke-width="3"/>
<path d="M932,865 A48,48 0 0 1 1028,865" fill="none" stroke="#241a1e" stroke-width="3"/>
<path d="M1034,865 A40,40 0 0 1 1114,865" fill="none" stroke="#241a1e" stroke-width="3"/>
<path d="M1120,865 A48,48 0 0 1 1216,865" fill="none" stroke="#241a1e" stroke-width="3"/>
<path d="M1222,865 A40,40 0 0 1 1302,865" fill="none" stroke="#241a1e" stroke-width="3"/>
<path d="M1308,865 A48,48 0 0 1 1404,865" fill="none" stroke="#241a1e" stroke-width="3"/>
<path d="M1410,865 A40,40 0 0 1 1490,865" fill="none" stroke="#241a1e" stroke-width="3"/>
<path d="M1496,865 A48,48 0 0 1 1592,865" fill="none" stroke="#241a1e" stroke-width="3"/>
<path d="M402,805 A38,38 0 0 1 478,805" fill="none" stroke="#241a1e" stroke-width="3"/>
<path d="M490,805 A38,38 0 0 1 566,805" fill="none" stroke="#241a1e" stroke-width="3"/>
<path d="M578,805 A38,38 0 0 1 654,805" fill="none" stroke="#241a1e" stroke-width="3"/>
<path d="M766,852 A34,34 0 0 1 834,852" fill="none" stroke="#241a1e" stroke-width="3"/>
<path d="M838,852 A34,34 0 0 1 906,852" fill="none" stroke="#241a1e" stroke-width="3"/>
<path d="M910,852 A34,34 0 0 1 978,852" fill="none" stroke="#241a1e" stroke-width="3"/>
<path d="M982,852 A34,34 0 0 1 1050,852" fill="none" stroke="#241a1e" stroke-width="3"/>
<circle cx="150" cy="862" r="44" fill="#e7d24a"/>
<circle cx="505" cy="768" r="38" fill="#2f6cb0"/>
<circle cx="1568" cy="525" r="42" fill="#2f6cb0"/>
<circle cx="1469" cy="758" r="42" fill="#9a9a96"/>
<circle cx="1357" cy="705" r="28" fill="#7a5ea0"/>
<circle cx="844" cy="296" r="15" fill="#c1392a"/>
<circle cx="1013" cy="127" r="20" fill="#6a7fb0"/>
<circle cx="893" cy="400" r="52" fill="#f6f1ec" stroke="#241a1e" stroke-width="4"/>
<circle cx="893" cy="400" r="30" fill="#f6f1ec" stroke="#241a1e" stroke-width="6"/>
<circle cx="975" cy="335" r="26" fill="none" stroke="#9a9a96" stroke-width="2" stroke-dasharray="3 5"/>
<circle cx="1202" cy="190" r="18" fill="none" stroke="#2f6cb0" stroke-width="4"/>
<circle cx="1202" cy="190" r="9" fill="#2f6cb0"/>
<path d="M1406,250 L1406.0,208.0 A42,42 0 0 1 1448.0,250.0 Z" fill="#5f7e54"/>
<path d="M1406,250 L1448.0,250.0 A42,42 0 0 1 1406.0,292.0 Z" fill="#a9c1d6"/>
<path d="M1406,250 L1406.0,292.0 A42,42 0 0 1 1364.0,250.0 Z" fill="#9a9a96"/>
<path d="M1406,250 L1364.0,250.0 A42,42 0 0 1 1406.0,208.0 Z" fill="#bb9450"/>
<circle cx="1406" cy="250" r="42" fill="none" stroke="#241a1e" stroke-width="2"/>
<circle cx="1730" cy="250" r="22" fill="#f6f1ec" stroke="#241a1e" stroke-width="2"/>
<circle cx="1560" cy="200" r="13" fill="#c1392a" opacity="0.7"/>
<circle cx="1635" cy="245" r="16" fill="none" stroke="#a878b8" stroke-width="3"/>
<circle cx="1005" cy="542" r="52" fill="#f6f1ec" stroke="#241a1e" stroke-width="3"/>
<circle cx="1005" cy="542" r="33" fill="#f6f1ec" stroke="#5f7e54" stroke-width="5"/>
<circle cx="1005" cy="542" r="15" fill="#241a1e"/>
<circle cx="1014" cy="536" r="5" fill="#f6f1ec"/>
<circle cx="959" cy="548" r="22" fill="#f6f1ec" stroke="#2a3d55" stroke-width="4"/>
<circle cx="1035" cy="552" r="26" fill="none" stroke="#c9a23a" stroke-width="3"/>
<circle cx="1057" cy="558" r="34" fill="none" stroke="#c1392a" stroke-width="3"/>
<line x1="973" y1="548" x2="981" y2="548" stroke="#2a3d55" stroke-width="2"/>
<line x1="970" y1="557" x2="976" y2="562" stroke="#2a3d55" stroke-width="2"/>
<line x1="961" y1="562" x2="963" y2="570" stroke="#2a3d55" stroke-width="2"/>
<line x1="952" y1="560" x2="948" y2="567" stroke="#2a3d55" stroke-width="2"/>
<line x1="946" y1="553" x2="938" y2="556" stroke="#2a3d55" stroke-width="2"/>
<line x1="946" y1="543" x2="938" y2="540" stroke="#2a3d55" stroke-width="2"/>
<line x1="952" y1="536" x2="948" y2="529" stroke="#2a3d55" stroke-width="2"/>
<line x1="961" y1="534" x2="963" y2="526" stroke="#2a3d55" stroke-width="2"/>
<line x1="970" y1="539" x2="976" y2="534" stroke="#2a3d55" stroke-width="2"/>
<polygon points="1010,58 1080,168 940,168" fill="none" opacity="1" stroke="#241a1e" stroke-width="2"/>
<polygon points="1130,118 1170,168 1090,168" fill="#e7d24a" opacity="1"/>
<polygon points="1418,938 1488,1052 1348,1052" fill="#c9a23a" opacity="1"/>
<polygon points="740,470 772,520 708,520" fill="#e7d24a" opacity="0.75"/>
<polygon points="540,400 566,446 514,446" fill="#e7d24a" opacity="0.6"/>
<line x1="1500" y1="455" x2="1605" y2="455" stroke="#241a1e" stroke-width="2" stroke-linecap="round"/>
<line x1="1500" y1="455" x2="1500" y2="545" stroke="#241a1e" stroke-width="2" stroke-linecap="round"/>
<line x1="1500" y1="485" x2="1605" y2="485" stroke="#241a1e" stroke-width="2" stroke-linecap="round"/>
<line x1="1535" y1="455" x2="1535" y2="545" stroke="#241a1e" stroke-width="2" stroke-linecap="round"/>
<line x1="1500" y1="515" x2="1605" y2="515" stroke="#241a1e" stroke-width="2" stroke-linecap="round"/>
<line x1="1570" y1="455" x2="1570" y2="545" stroke="#241a1e" stroke-width="2" stroke-linecap="round"/>
<line x1="1500" y1="545" x2="1605" y2="545" stroke="#241a1e" stroke-width="2" stroke-linecap="round"/>
<line x1="1605" y1="455" x2="1605" y2="545" stroke="#241a1e" stroke-width="2" stroke-linecap="round"/>
<rect x="1536" y="487" width="30" height="26" fill="#c1392a" opacity="0.7"/>
<rect x="1501" y="517" width="32" height="26" fill="#a9c1d6" opacity="0.6"/>
<line x1="1618" y1="930" x2="1688" y2="930" stroke="#241a1e" stroke-width="1.5" stroke-linecap="round"/>
<line x1="1618" y1="930" x2="1618" y2="996" stroke="#241a1e" stroke-width="1.5" stroke-linecap="round"/>
<line x1="1618" y1="952" x2="1688" y2="952" stroke="#241a1e" stroke-width="1.5" stroke-linecap="round"/>
<line x1="1641" y1="930" x2="1641" y2="996" stroke="#241a1e" stroke-width="1.5" stroke-linecap="round"/>
<line x1="1618" y1="974" x2="1688" y2="974" stroke="#241a1e" stroke-width="1.5" stroke-linecap="round"/>
<line x1="1664" y1="930" x2="1664" y2="996" stroke="#241a1e" stroke-width="1.5" stroke-linecap="round"/>
<line x1="1618" y1="996" x2="1688" y2="996" stroke="#241a1e" stroke-width="1.5" stroke-linecap="round"/>
<line x1="1687" y1="930" x2="1687" y2="996" stroke="#241a1e" stroke-width="1.5" stroke-linecap="round"/>
<rect x="1620" y="932" width="18" height="18" fill="#c1392a" opacity="0.7"/>
<rect x="1643" y="954" width="18" height="18" fill="#2f6cb0" opacity="0.6"/>
<rect x="1664" y="1000" width="24" height="22" fill="#8b2020"/>
<g><rect x="905" y="440" width="19" height="19" fill="#1c0f14"/><rect x="924" y="440" width="19" height="19" fill="#f6f1ec"/><rect x="943" y="440" width="19" height="19" fill="#1c0f14"/><rect x="962" y="440" width="19" height="19" fill="#f6f1ec"/><rect x="981" y="440" width="19" height="19" fill="#1c0f14"/><rect x="905" y="459" width="19" height="19" fill="#f6f1ec"/><rect x="924" y="459" width="19" height="19" fill="#1c0f14"/><rect x="943" y="459" width="19" height="19" fill="#f6f1ec"/><rect x="962" y="459" width="19" height="19" fill="#1c0f14"/><rect x="981" y="459" width="19" height="19" fill="#f6f1ec"/><rect x="905" y="478" width="19" height="19" fill="#1c0f14"/><rect x="924" y="478" width="19" height="19" fill="#f6f1ec"/><rect x="943" y="478" width="19" height="19" fill="#1c0f14"/><rect x="962" y="478" width="19" height="19" fill="#f6f1ec"/><rect x="981" y="478" width="19" height="19" fill="#1c0f14"/></g>
<rect x="300" y="715" width="30" height="42" fill="#5f7e54" opacity="0.85"/>
<rect x="330" y="715" width="30" height="42" fill="#c9a23a" opacity="0.85"/>
<rect x="360" y="715" width="30" height="42" fill="#a9c1d6" opacity="0.85"/>
<rect x="1688" y="150" width="28" height="28" fill="none" stroke="#241a1e" stroke-width="3"/>
<circle cx="475" cy="118" r="9" fill="#c1392a"/>
</svg>