<svg width="1724" height="2175" viewBox="0 0 1724 2175" fill="none" xmlns="http://www.w3.org/2000/svg">
<path d="M1264 1105.5C1272.84 1105.5 1280 1098.34 1280 1089.5C1280 1080.66 1272.84 1073.5 1264 1073.5C1255.16 1073.5 1248 1080.66 1248 1089.5C1248 1098.34 1255.16 1105.5 1264 1105.5Z" fill="#D62828"/>
<path opacity="0.5" d="M526 1645.5C816.502 1645.5 1052 1410 1052 1119.5C1052 828.998 816.502 593.5 526 593.5C235.498 593.5 0 828.998 0 1119.5C0 1410 235.498 1645.5 526 1645.5Z" fill="#A9C1D6"/>
<path opacity="0.55" d="M1724 492.5H318V1697.5H1724V492.5Z" fill="#E6B6C4"/>
<path d="M961.669 273.916L756 56.3279L1128.8 25.5001L961.669 273.916Z" fill="#E7D24A"/>
<path d="M910 49.5C910 36.7696 915.057 24.5606 924.059 15.5589C933.061 6.55715 945.27 1.5 958 1.5C970.73 1.5 982.939 6.55715 991.941 15.5589C1000.94 24.5606 1006 36.7696 1006 49.5" stroke="#241A1E" stroke-width="3"/>
<path d="M1012 49.5C1012 38.8913 1016.21 28.7172 1023.72 21.2157C1031.22 13.7142 1041.39 9.5 1052 9.5C1062.61 9.5 1072.78 13.7142 1080.28 21.2157C1087.79 28.7172 1092 38.8913 1092 49.5" stroke="#241A1E" stroke-width="3"/>
<path d="M1098 49.5C1098 36.7696 1103.06 24.5606 1112.06 15.5589C1121.06 6.55715 1133.27 1.5 1146 1.5C1158.73 1.5 1170.94 6.55715 1179.94 15.5589C1188.94 24.5606 1194 36.7696 1194 49.5" stroke="#241A1E" stroke-width="3"/>
<path d="M502 537.5C517.464 537.5 530 524.964 530 509.5C530 494.036 517.464 481.5 502 481.5C486.536 481.5 474 494.036 474 509.5C474 524.964 486.536 537.5 502 537.5Z" fill="#D62828"/>
<path d="M980.346 113.5L788.77 1188.9" stroke="white" stroke-width="8" stroke-linecap="round"/>
<path d="M1350.5 654.5C1398.27 654.5 1437 615.773 1437 568C1437 520.227 1398.27 481.5 1350.5 481.5C1302.73 481.5 1264 520.227 1264 568C1264 615.773 1302.73 654.5 1350.5 654.5Z" fill="#7A5EA0"/>
<path d="M300.5 1122.5C348.273 1122.5 387 1083.77 387 1036C387 988.227 348.273 949.5 300.5 949.5C252.727 949.5 214 988.227 214 1036C214 1083.77 252.727 1122.5 300.5 1122.5Z" fill="#7A5EA0"/>
<path d="M947.41 118.809L1129.06 59.7585L1058.24 274.375L947.41 118.809Z" fill="#FFD60A"/>
<path opacity="0.3" d="M722.687 2163.41C1003.8 2163.41 1231.69 1935.52 1231.69 1654.41C1231.69 1373.3 1003.8 1145.41 722.687 1145.41C441.574 1145.41 213.687 1373.3 213.687 1654.41C213.687 1935.52 441.574 2163.41 722.687 2163.41Z" fill="#DF7D65"/>
<path d="M652.209 785.71C838.16 746.665 1020.56 865.757 1059.6 1051.71C1098.65 1237.66 979.555 1420.06 793.603 1459.1C607.651 1498.15 425.255 1379.05 386.21 1193.1C347.165 1007.15 466.257 824.755 652.209 785.71Z" fill="#9A9A96" stroke="black" stroke-width="11"/>
<path d="M748.513 2083.18C988.224 2032.85 1141.7 1797.5 1091.31 1557.52C1040.92 1317.54 805.746 1163.8 566.035 1214.13C326.324 1264.47 172.849 1499.81 223.239 1739.79C273.628 1979.78 508.802 2133.52 748.513 2083.18Z" fill="#D62828"/>
<path d="M911.936 155.557L936.759 163.292L944.494 138.47L919.671 130.734L911.936 155.557Z" fill="#1C0F14"/>
<path d="M887.113 147.822L911.936 155.557L919.671 130.734L894.849 122.999L887.113 147.822Z" fill="#F6F1EC"/>
<path d="M862.291 140.087L887.113 147.822L894.849 122.999L870.026 115.264L862.291 140.087Z" fill="#1C0F14"/>
<path d="M837.468 132.351L862.291 140.087L870.026 115.264L845.203 107.529L837.468 132.351Z" fill="#F6F1EC"/>
<path d="M812.645 124.616L837.468 132.351L845.203 107.529L820.381 99.7934L812.645 124.616Z" fill="#1C0F14"/>
<path d="M787.823 116.881L812.645 124.616L820.381 99.7933L795.558 92.0581L787.823 116.881Z" fill="#F6F1EC"/>
<path d="M763 109.145L787.823 116.881L795.558 92.0581L770.735 84.3228L763 109.145Z" fill="#1C0F14"/>
<path d="M919.671 130.735L944.494 138.47L952.229 113.647L927.407 105.912L919.671 130.735Z" fill="#F6F1EC"/>
<path d="M894.849 122.999L919.671 130.734L927.407 105.912L902.584 98.1765L894.849 122.999Z" fill="#1C0F14"/>
<path d="M870.026 115.264L894.849 122.999L902.584 98.1765L877.761 90.4412L870.026 115.264Z" fill="#F6F1EC"/>
<path d="M845.203 107.529L870.026 115.264L877.761 90.4412L852.939 82.706L845.203 107.529Z" fill="#1C0F14"/>
<path d="M820.381 99.7933L845.203 107.529L852.939 82.7059L828.116 74.9707L820.381 99.7933Z" fill="#F6F1EC"/>
<path d="M795.558 92.0581L820.381 99.7933L828.116 74.9707L803.293 67.2354L795.558 92.0581Z" fill="#1C0F14"/>
<path d="M770.735 84.3228L795.558 92.058L803.293 67.2354L778.471 59.5001L770.735 84.3228Z" fill="#F6F1EC"/>
<path d="M698.911 1849.39C809.713 1826.12 880.675 1717.44 857.41 1606.64C834.144 1495.83 725.461 1424.87 614.659 1448.14C503.857 1471.4 432.894 1580.09 456.16 1690.89C479.425 1801.69 588.109 1872.65 698.911 1849.39Z" fill="#FFD60A"/>
<path d="M968.658 297.439L710.695 1745.5" stroke="white" stroke-width="8" stroke-linecap="round"/>
<path d="M690.5 1519.5C886.837 1519.5 1046 1360.34 1046 1164C1046 967.663 886.837 808.5 690.5 808.5C494.163 808.5 335 967.663 335 1164C335 1360.34 494.163 1519.5 690.5 1519.5Z" stroke="#C1392A" stroke-width="11"/>
<path d="M819.5 1461.5C1015.84 1461.5 1175 1302.34 1175 1106C1175 909.663 1015.84 750.5 819.5 750.5C623.163 750.5 464 909.663 464 1106C464 1302.34 623.163 1461.5 819.5 1461.5Z" stroke="#E7D24A" stroke-width="11"/>
<path d="M944.421 99.5L686.458 1547.56" stroke="white" stroke-width="8" stroke-linecap="round"/>
<path d="M869.5 349.5L611.538 1797.56" stroke="white" stroke-width="8" stroke-linecap="round"/>
<path d="M682.936 1700.56L707.759 1708.29L715.494 1683.47L690.671 1675.73L682.936 1700.56Z" fill="#1C0F14"/>
<path d="M658.113 1692.82L682.936 1700.56L690.671 1675.73L665.849 1668L658.113 1692.82Z" fill="#F6F1EC"/>
<path d="M633.291 1685.09L658.113 1692.82L665.849 1668L641.026 1660.26L633.291 1685.09Z" fill="#1C0F14"/>
<path d="M608.468 1677.35L633.291 1685.09L641.026 1660.26L616.203 1652.53L608.468 1677.35Z" fill="#F6F1EC"/>
<path d="M583.645 1669.62L608.468 1677.35L616.203 1652.53L591.381 1644.79L583.645 1669.62Z" fill="#1C0F14"/>
<path d="M558.823 1661.88L583.645 1669.62L591.381 1644.79L566.558 1637.06L558.823 1661.88Z" fill="#F6F1EC"/>
<path d="M534 1654.15L558.823 1661.88L566.558 1637.06L541.735 1629.32L534 1654.15Z" fill="#1C0F14"/>
<path d="M690.671 1675.73L715.494 1683.47L723.229 1658.65L698.407 1650.91L690.671 1675.73Z" fill="#F6F1EC"/>
<path d="M665.849 1668L690.671 1675.73L698.407 1650.91L673.584 1643.18L665.849 1668Z" fill="#1C0F14"/>
<path d="M641.026 1660.26L665.849 1668L673.584 1643.18L648.761 1635.44L641.026 1660.26Z" fill="#F6F1EC"/>
<path d="M616.203 1652.53L641.026 1660.26L648.761 1635.44L623.939 1627.71L616.203 1652.53Z" fill="#1C0F14"/>
<path d="M591.381 1644.79L616.203 1652.53L623.939 1627.71L599.116 1619.97L591.381 1644.79Z" fill="#F6F1EC"/>
<path d="M566.558 1637.06L591.381 1644.79L599.116 1619.97L574.293 1612.24L566.558 1637.06Z" fill="#1C0F14"/>
<path d="M541.735 1629.32L566.558 1637.06L574.293 1612.24L549.471 1604.5L541.735 1629.32Z" fill="#F6F1EC"/>
<path d="M1716 880.5H1456V1140.5H1716V880.5Z" stroke="#241A1E" stroke-width="3"/>
</svg>
