<svg width="3608" height="1982" viewBox="0 0 3608 1982" fill="none" xmlns="http://www.w3.org/2000/svg">
<path opacity="0.3" d="M1787 1551C2053.75 1551 2270 1334.53 2270 1067.5C2270 800.47 2053.75 584 1787 584C1520.25 584 1304 800.47 1304 1067.5C1304 1334.53 1520.25 1551 1787 1551Z" fill="#DF7D65"/>
<path d="M1787.5 1466C2008.14 1466 2187 1287.36 2187 1067C2187 846.638 2008.14 668 1787.5 668C1566.86 668 1388 846.638 1388 1067C1388 1287.36 1566.86 1466 1787.5 1466Z" fill="#1C0F14"/>
<path d="M1775.5 1297C1888.44 1297 1980 1205.44 1980 1092.5C1980 979.558 1888.44 888 1775.5 888C1662.56 888 1571 979.558 1571 1092.5C1571 1205.44 1662.56 1297 1775.5 1297Z" fill="#A878B8"/>
<path d="M1853 1252L3607 1915" stroke="#241A1E" stroke-width="2" stroke-linecap="round"/>
<path d="M1522 1408L2886 824" stroke="#1D3557" stroke-width="5" stroke-linecap="round"/>
<path d="M516.849 679.888L613.196 706.668L428.977 1182.72L516.849 679.888Z" fill="#7A4A24"/>
<path opacity="0.28" d="M2239 350C2261.09 350 2279 332.091 2279 310C2279 287.909 2261.09 270 2239 270C2216.91 270 2199 287.909 2199 310C2199 332.091 2216.91 350 2239 350Z" fill="#C9A23A"/>
<path d="M2253 483C2260.73 483 2267 476.732 2267 469C2267 461.268 2260.73 455 2253 455C2245.27 455 2239 461.268 2239 469C2239 476.732 2245.27 483 2253 483Z" fill="#1D3557"/>
<path d="M1556 1474H1656L1606 1982L1556 1474Z" fill="#2C2C2C"/>
<path d="M1162 1474H1339L1250.5 1982L1162 1474Z" fill="#1D3557"/>
<path d="M369 1474H667L518 1982L369 1474Z" fill="#2C2C2C"/>
<path d="M1601.83 929.555L1233.46 1497.34L686.181 738.891L1601.83 929.555Z" fill="#2C2C2C"/>
<path d="M1914.92 763.891L1566.77 1344.29L993.127 605.583L1914.92 763.891Z" fill="#2C2C2C"/>
<path d="M1362.23 566.022L922.87 1282.38L219.681 358.178L1362.23 566.022Z" fill="#2C2C2C"/>
<path d="M1843 1192.11L1843 1099.11L303 1099.11L303 1192.11L1843 1192.11Z" fill="#BB9450"/>
<path d="M1843.23 1441.35L1843.23 1402.35L191.232 1402.35L191.232 1441.35L1843.23 1441.35Z" fill="#F6F1EC"/>
<path d="M1843.23 1480.35L1843.23 1441.35L191.232 1441.35L191.232 1480.35L1843.23 1480.35Z" fill="#7A4A24"/>
<path d="M948 1542L948 1483L191 1483L191 1542L948 1542Z" fill="#7A4A24"/>
<path d="M1843 1285.11L1843 1192.11L303 1192.11L303 1285.11L1843 1285.11Z" fill="#F6F1EC"/>
<path d="M1843 1378.11L1843 1285.11L303 1285.11L303 1378.11L1843 1378.11Z" fill="#A9C1D6"/>
<path d="M208.431 1433.18L225.862 1449.8L326.745 1447.39L309.314 1430.77L208.431 1433.18Z" fill="#1C0F14"/>
<path d="M191 1416.57L208.431 1433.18L309.314 1430.77L291.883 1414.16L191 1416.57Z" fill="#F6F1EC"/>
<path d="M309.314 1430.77L326.745 1447.39L427.628 1444.98L410.198 1428.36L309.314 1430.77Z" fill="#F6F1EC"/>
<path d="M291.884 1414.16L309.314 1430.77L410.198 1428.36L392.767 1411.74L291.884 1414.16Z" fill="#1C0F14"/>
<path d="M410.198 1428.36L427.629 1444.98L528.512 1442.56L511.081 1425.95L410.198 1428.36Z" fill="#1C0F14"/>
<path d="M392.766 1411.74L410.197 1428.36L511.08 1425.95L493.649 1409.33L392.766 1411.74Z" fill="#F6F1EC"/>
<path d="M511.08 1425.95L528.511 1442.56L629.394 1440.15L611.963 1423.54L511.08 1425.95Z" fill="#F6F1EC"/>
<path d="M493.649 1409.33L511.08 1425.95L611.963 1423.54L594.532 1406.92L493.649 1409.33Z" fill="#1C0F14"/>
<path d="M611.964 1423.54L629.395 1440.15L730.278 1437.74L712.847 1421.12L611.964 1423.54Z" fill="#1C0F14"/>
<path d="M594.533 1406.92L611.964 1423.54L712.847 1421.12L695.416 1404.51L594.533 1406.92Z" fill="#F6F1EC"/>
<path d="M712.846 1421.12L730.277 1437.74L831.16 1435.33L813.729 1418.71L712.846 1421.12Z" fill="#F6F1EC"/>
<path d="M695.415 1404.51L712.846 1421.12L813.729 1418.71L796.298 1402.1L695.415 1404.51Z" fill="#1C0F14"/>
<path d="M813.729 1418.71L831.16 1435.33L932.043 1432.91L914.612 1416.3L813.729 1418.71Z" fill="#1C0F14"/>
<path d="M796.299 1402.1L813.73 1418.71L914.613 1416.3L897.182 1399.68L796.299 1402.1Z" fill="#F6F1EC"/>
<path d="M914.612 1416.3L932.043 1432.91L1032.93 1430.5L1015.49 1413.89L914.612 1416.3Z" fill="#F6F1EC"/>
<path d="M897.181 1399.68L914.612 1416.3L1015.49 1413.89L998.064 1397.27L897.181 1399.68Z" fill="#1C0F14"/>
<path d="M1018.51 1413.91L1035.94 1430.53L1136.82 1428.12L1119.39 1411.5L1018.51 1413.91Z" fill="#1C0F14"/>
<path d="M1001.07 1397.3L1018.5 1413.91L1119.39 1411.5L1101.96 1394.89L1001.07 1397.3Z" fill="#F6F1EC"/>
<path d="M1119.39 1411.5L1136.82 1428.12L1237.7 1425.71L1220.27 1409.09L1119.39 1411.5Z" fill="#F6F1EC"/>
<path d="M1101.96 1394.89L1119.39 1411.5L1220.27 1409.09L1202.84 1392.47L1101.96 1394.89Z" fill="#1C0F14"/>
<path d="M1220.27 1409.09L1237.7 1425.71L1338.59 1423.29L1321.16 1406.68L1220.27 1409.09Z" fill="#1C0F14"/>
<path d="M1202.84 1392.47L1220.27 1409.09L1321.15 1406.68L1303.72 1390.06L1202.84 1392.47Z" fill="#F6F1EC"/>
<path d="M1321.15 1406.68L1338.59 1423.29L1439.47 1420.88L1422.04 1404.27L1321.15 1406.68Z" fill="#F6F1EC"/>
<path d="M1303.72 1390.06L1321.15 1406.68L1422.04 1404.26L1404.61 1387.65L1303.72 1390.06Z" fill="#1C0F14"/>
<path d="M1422.04 1404.27L1439.47 1420.88L1540.35 1418.47L1522.92 1401.85L1422.04 1404.27Z" fill="#1C0F14"/>
<path d="M1404.61 1387.65L1422.04 1404.27L1522.92 1401.85L1505.49 1385.24L1404.61 1387.65Z" fill="#F6F1EC"/>
<path d="M1522.92 1401.85L1540.35 1418.47L1641.23 1416.06L1623.8 1399.44L1522.92 1401.85Z" fill="#F6F1EC"/>
<path d="M1505.49 1385.24L1522.92 1401.85L1623.8 1399.44L1606.37 1382.82L1505.49 1385.24Z" fill="#1C0F14"/>
<path d="M1623.8 1399.44L1641.23 1416.06L1742.12 1413.64L1724.69 1397.03L1623.8 1399.44Z" fill="#1C0F14"/>
<path d="M1606.37 1382.82L1623.8 1399.44L1724.69 1397.03L1707.26 1380.41L1606.37 1382.82Z" fill="#F6F1EC"/>
<path d="M1724.69 1397.03L1742.12 1413.64L1843 1411.23L1825.57 1394.62L1724.69 1397.03Z" fill="#F6F1EC"/>
<path d="M1707.26 1380.41L1724.69 1397.03L1825.57 1394.62L1808.14 1378L1707.26 1380.41Z" fill="#1C0F14"/>
<path d="M1648.2 1258H1602V1304.2H1648.2V1258Z" fill="#1C0F14"/>
<path d="M1694.4 1258H1648.2V1304.2H1694.4V1258Z" fill="#F6F1EC"/>
<path d="M1740.6 1258H1694.4V1304.2H1740.6V1258Z" fill="#1C0F14"/>
<path d="M1786.8 1258H1740.6V1304.2H1786.8V1258Z" fill="#F6F1EC"/>
<path d="M1833 1258H1786.8V1304.2H1833V1258Z" fill="#1C0F14"/>
<path d="M1648.2 1304.2H1602V1350.4H1648.2V1304.2Z" fill="#F6F1EC"/>
<path d="M1694.4 1304.2H1648.2V1350.4H1694.4V1304.2Z" fill="#1C0F14"/>
<path d="M1740.6 1304.2H1694.4V1350.4H1740.6V1304.2Z" fill="#F6F1EC"/>
<path d="M1786.8 1304.2H1740.6V1350.4H1786.8V1304.2Z" fill="#1C0F14"/>
<path d="M1833 1304.2H1786.8V1350.4H1833V1304.2Z" fill="#F6F1EC"/>
<path d="M1648.2 1350.4H1602V1396.6H1648.2V1350.4Z" fill="#1C0F14"/>
<path d="M1694.4 1350.4H1648.2V1396.6H1694.4V1350.4Z" fill="#F6F1EC"/>
<path d="M1740.6 1350.4H1694.4V1396.6H1740.6V1350.4Z" fill="#1C0F14"/>
<path d="M1786.8 1350.4H1740.6V1396.6H1786.8V1350.4Z" fill="#F6F1EC"/>
<path d="M1833 1350.4H1786.8V1396.6H1833V1350.4Z" fill="#1C0F14"/>
<path d="M373.2 1281H327V1311.87H373.2V1281Z" fill="#1C0F14"/>
<path d="M419.4 1281H373.2V1311.87H419.4V1281Z" fill="#F6F1EC"/>
<path d="M465.6 1281H419.4V1311.87H465.6V1281Z" fill="#1C0F14"/>
<path d="M511.8 1281H465.6V1311.87H511.8V1281Z" fill="#F6F1EC"/>
<path d="M558 1281H511.8V1311.87H558V1281Z" fill="#1C0F14"/>
<path d="M373.2 1311.87H327V1342.73H373.2V1311.87Z" fill="#F6F1EC"/>
<path d="M419.4 1311.87H373.2V1342.73H419.4V1311.87Z" fill="#1C0F14"/>
<path d="M465.6 1311.87H419.4V1342.73H465.6V1311.87Z" fill="#F6F1EC"/>
<path d="M511.8 1311.87H465.6V1342.73H511.8V1311.87Z" fill="#1C0F14"/>
<path d="M558 1311.87H511.8V1342.73H558V1311.87Z" fill="#F6F1EC"/>
<path d="M373.2 1342.73H327V1373.6H373.2V1342.73Z" fill="#1C0F14"/>
<path d="M419.4 1342.73H373.2V1373.6H419.4V1342.73Z" fill="#F6F1EC"/>
<path d="M465.6 1342.73H419.4V1373.6H465.6V1342.73Z" fill="#1C0F14"/>
<path d="M511.8 1342.73H465.6V1373.6H511.8V1342.73Z" fill="#F6F1EC"/>
<path d="M558 1342.73H511.8V1373.6H558V1342.73Z" fill="#1C0F14"/>
<path d="M1169.2 1203H1123V1233.87H1169.2V1203Z" fill="#1C0F14"/>
<path d="M1215.4 1203H1169.2V1233.87H1215.4V1203Z" fill="#F6F1EC"/>
<path d="M1261.6 1203H1215.4V1233.87H1261.6V1203Z" fill="#1C0F14"/>
<path d="M1307.8 1203H1261.6V1233.87H1307.8V1203Z" fill="#F6F1EC"/>
<path d="M1354 1203H1307.8V1233.87H1354V1203Z" fill="#1C0F14"/>
<path d="M1169.2 1233.87H1123V1264.73H1169.2V1233.87Z" fill="#F6F1EC"/>
<path d="M1215.4 1233.87H1169.2V1264.73H1215.4V1233.87Z" fill="#1C0F14"/>
<path d="M1261.6 1233.87H1215.4V1264.73H1261.6V1233.87Z" fill="#F6F1EC"/>
<path d="M1307.8 1233.87H1261.6V1264.73H1307.8V1233.87Z" fill="#1C0F14"/>
<path d="M1354 1233.87H1307.8V1264.73H1354V1233.87Z" fill="#F6F1EC"/>
<path d="M1169.2 1264.73H1123V1295.6H1169.2V1264.73Z" fill="#1C0F14"/>
<path d="M1215.4 1264.73H1169.2V1295.6H1215.4V1264.73Z" fill="#F6F1EC"/>
<path d="M1261.6 1264.73H1215.4V1295.6H1261.6V1264.73Z" fill="#1C0F14"/>
<path d="M1307.8 1264.73H1261.6V1295.6H1307.8V1264.73Z" fill="#F6F1EC"/>
<path d="M1354 1264.73H1307.8V1295.6H1354V1264.73Z" fill="#1C0F14"/>
<path d="M665 1270H639V1296H665V1270Z" fill="#1C0F14"/>
<path d="M691 1270H665V1296H691V1270Z" fill="#F6F1EC"/>
<path d="M717 1270H691V1296H717V1270Z" fill="#1C0F14"/>
<path d="M743 1270H717V1296H743V1270Z" fill="#F6F1EC"/>
<path d="M769 1270H743V1296H769V1270Z" fill="#1C0F14"/>
<path d="M795 1270H769V1296H795V1270Z" fill="#F6F1EC"/>
<path d="M821 1270H795V1296H821V1270Z" fill="#1C0F14"/>
<path d="M665 1296H639V1322H665V1296Z" fill="#F6F1EC"/>
<path d="M691 1296H665V1322H691V1296Z" fill="#1C0F14"/>
<path d="M717 1296H691V1322H717V1296Z" fill="#F6F1EC"/>
<path d="M743 1296H717V1322H743V1296Z" fill="#1C0F14"/>
<path d="M769 1296H743V1322H769V1296Z" fill="#F6F1EC"/>
<path d="M795 1296H769V1322H795V1296Z" fill="#1C0F14"/>
<path d="M821 1296H795V1322H821V1296Z" fill="#F6F1EC"/>
<path d="M275.105 561.932L1401 964.428" stroke="#8B8B8B" stroke-width="2" stroke-linecap="round"/>
<path d="M246.403 583.177L1372.3 985.673" stroke="#8B8B8B" stroke-width="2" stroke-linecap="round"/>
<path d="M217.702 604.422L1343.6 1006.92" stroke="white" stroke-width="2" stroke-linecap="round"/>
<path d="M189 625.667L1314.89 1028.16" stroke="#8B8B8B" stroke-width="2" stroke-linecap="round"/>
</svg>
