<svg width="2178" height="1437" viewBox="0 0 2178 1437" fill="none" xmlns="http://www.w3.org/2000/svg">
<path d="M805 87C829.024 87 848.5 67.5244 848.5 43.5C848.5 19.4756 829.024 0 805 0C780.976 0 761.5 19.4756 761.5 43.5C761.5 67.5244 780.976 87 805 87Z" fill="#D62828"/>
<path d="M1578.5 1116C1590.65 1116 1600.5 1106.37 1600.5 1094.5C1600.5 1082.63 1590.65 1073 1578.5 1073C1566.35 1073 1556.5 1082.63 1556.5 1094.5C1556.5 1106.37 1566.35 1116 1578.5 1116Z" fill="#1D3557"/>
<path d="M1815.5 788H1725.5V878H1815.5V788Z" fill="#0077B6"/>
<path d="M1127.5 125C1127.5 105.109 1135.35 86.0323 1149.32 71.967C1163.29 57.9018 1182.24 50 1202 50C1221.76 50 1240.71 57.9018 1254.68 71.967C1268.65 86.0323 1276.5 105.109 1276.5 125" stroke="#241A1E" stroke-width="3"/>
<path d="M1285.5 125C1285.5 108.291 1292.08 92.267 1303.81 80.4522C1315.53 68.6374 1331.42 62 1348 62C1364.58 62 1380.47 68.6374 1392.19 80.4522C1403.92 92.267 1410.5 108.291 1410.5 125" stroke="#241A1E" stroke-width="3"/>
<path d="M1419.5 125C1419.5 105.109 1427.4 86.0323 1441.47 71.967C1455.53 57.9018 1474.61 50 1494.5 50C1514.39 50 1533.47 57.9018 1547.53 71.967C1561.6 86.0323 1569.5 105.109 1569.5 125" stroke="#241A1E" stroke-width="3"/>
<path d="M1578.5 125C1578.5 108.291 1585.08 92.267 1596.81 80.4522C1608.53 68.6374 1624.42 62 1641 62C1657.58 62 1673.47 68.6374 1685.19 80.4522C1696.92 92.267 1703.5 108.291 1703.5 125" stroke="#241A1E" stroke-width="3"/>
<path d="M1.5 168L2176.5 223" stroke="#241A1E" stroke-width="3" stroke-linecap="round"/>
<path d="M605 1250C909.033 1250 1155.5 1003.53 1155.5 699.5C1155.5 395.467 909.033 149 605 149C300.967 149 54.5 395.467 54.5 699.5C54.5 1003.53 300.967 1250 605 1250Z" fill="#9A9A96"/>
<path d="M1460.5 335H358.5V1437H1460.5V335Z" fill="#0077B6"/>
<path opacity="0.55" d="M1207.14 232L188.5 992.909L1268.5 1042L1207.14 232Z" fill="#A9C1D6"/>
<path opacity="0.85" d="M728.602 1212.81L728.602 1166.1L544.89 1166.1L544.89 1212.81L728.602 1212.81Z" fill="#5F7E54"/>
<path opacity="0.85" d="M728.602 1259.52L728.602 1212.81L544.89 1212.81L544.89 1259.52L728.602 1259.52Z" fill="#C9A23A"/>
<path opacity="0.85" d="M728.602 1306.22L728.602 1259.52L544.89 1259.52L544.89 1306.22L728.602 1306.22Z" fill="#A9C1D6"/>
<path opacity="0.92" d="M909 1347C970.027 1347 1019.5 1297.53 1019.5 1236.5C1019.5 1175.47 970.027 1126 909 1126C847.973 1126 798.5 1175.47 798.5 1236.5C798.5 1297.53 847.973 1347 909 1347Z" fill="#FBFDFF"/>
<path d="M533.52 459.601L481.498 460.677L492.253 980.894L544.275 979.818L533.52 459.601Z" fill="#F6F1EC"/>
<path d="M1269.48 455.684L1217.46 456.76L1228.22 976.977L1280.24 975.901L1269.48 455.684Z" fill="#F6F1EC"/>
<path d="M1207.21 456.166L1155.19 457.241L1165.94 977.459L1217.96 976.383L1207.21 456.166Z" fill="#F6F1EC"/>
<path d="M1397.15 455.684L1345.13 456.76L1355.88 976.977L1407.9 975.901L1397.15 455.684Z" fill="#F6F1EC"/>
<path d="M417.871 463.469L365.849 464.544L376.604 984.761L428.626 983.686L417.871 463.469Z" fill="#F6F1EC"/>
<path d="M585.541 458.526L533.52 459.601L544.275 979.818L596.296 978.743L585.541 458.526Z" fill="#A9C1D6"/>
<path d="M649.846 459.28L597.824 460.355L608.579 980.572L660.601 979.497L649.846 459.28Z" fill="#A9C1D6"/>
<path d="M1321.51 454.609L1269.48 455.685L1280.24 975.902L1332.26 974.826L1321.51 454.609Z" fill="#A9C1D6"/>
<path d="M1449.17 454.609L1397.15 455.685L1407.9 975.902L1459.92 974.826L1449.17 454.609Z" fill="#A9C1D6"/>
<path d="M469.892 462.393L417.871 463.469L428.626 983.686L480.647 982.611L469.892 462.393Z" fill="#A9C1D6"/>
<path d="M908.421 1329.58C959.582 1329.58 1001.06 1288.1 1001.06 1236.94C1001.06 1185.78 959.582 1144.31 908.421 1144.31C857.261 1144.31 815.787 1185.78 815.787 1236.94C815.787 1288.1 857.261 1329.58 908.421 1329.58Z" fill="#F6F1EC" stroke="#2A3D55" stroke-width="4"/>
<path d="M958.302 1236.94H986.805" stroke="#2A3D55" stroke-width="2"/>
<path d="M947.613 1269.01L968.99 1286.82" stroke="#2A3D55" stroke-width="2"/>
<path d="M915.547 1286.82L922.673 1315.32" stroke="#2A3D55" stroke-width="2"/>
<path d="M883.481 1279.7L869.23 1304.64" stroke="#2A3D55" stroke-width="2"/>
<path d="M862.104 1254.76L833.601 1265.44" stroke="#2A3D55" stroke-width="2"/>
<path d="M862.104 1219.13L833.601 1208.44" stroke="#2A3D55" stroke-width="2"/>
<path d="M883.481 1194.19L869.23 1169.25" stroke="#2A3D55" stroke-width="2"/>
<path d="M915.547 1187.06L922.673 1158.56" stroke="#2A3D55" stroke-width="2"/>
<path d="M947.613 1204.87L968.99 1187.06" stroke="#2A3D55" stroke-width="2"/>
<path opacity="0.85" d="M1243.93 1226.82L1243.93 1180.11L1089.8 1180.11L1089.8 1226.82L1243.93 1226.82Z" fill="#5F7E54"/>
<path opacity="0.85" d="M1243.93 1273.53L1243.93 1226.82L1089.8 1226.82L1089.8 1273.53L1243.93 1273.53Z" fill="#C9A23A"/>
<path opacity="0.85" d="M1243.93 1320.23L1243.93 1273.53L1089.8 1273.53L1089.8 1320.23L1243.93 1320.23Z" fill="#A9C1D6"/>
<rect x="660.5" y="462" width="507" height="489" fill="#F1E9D8"/>
<path d="M659.5 1116C750.075 1116 823.5 1042.57 823.5 952C823.5 861.425 750.075 788 659.5 788C568.925 788 495.5 861.425 495.5 952C495.5 1042.57 568.925 1116 659.5 1116Z" fill="#6A7FB0"/>
<path d="M644.53 454.075H1175.43" stroke="#241A1E" stroke-width="1.5" stroke-linecap="round"/>
<path d="M644.53 454.075V954.634" stroke="#241A1E" stroke-width="1.5" stroke-linecap="round"/>
<path d="M644.53 620.928H1175.43" stroke="#241A1E" stroke-width="1.5" stroke-linecap="round"/>
<path d="M818.967 454.075V954.634" stroke="#241A1E" stroke-width="1.5" stroke-linecap="round"/>
<path d="M644.53 787.781H1175.43" stroke="#241A1E" stroke-width="1.5" stroke-linecap="round"/>
<path d="M993.405 454.075V954.634" stroke="#241A1E" stroke-width="1.5" stroke-linecap="round"/>
<path d="M644.53 954.634H1175.43" stroke="#241A1E" stroke-width="1.5" stroke-linecap="round"/>
<path d="M1167.84 454.075V954.634" stroke="#241A1E" stroke-width="1.5" stroke-linecap="round"/>
<path opacity="0.7" d="M796.215 469.243H659.699V605.759H796.215V469.243Z" fill="#C1392A"/>
<path opacity="0.6" d="M970.652 636.096H834.136V772.613H970.652V636.096Z" fill="#2F6CB0"/>
<path d="M1175.43 984.971H993.405V1151.82H1175.43V984.971Z" fill="#8B2020"/>
<path d="M1655 587C1668.53 587 1679.5 575.807 1679.5 562C1679.5 548.193 1668.53 537 1655 537C1641.47 537 1630.5 548.193 1630.5 562C1630.5 575.807 1641.47 587 1655 587Z" fill="#D62828"/>
</svg>
