<svg width="2754" height="2476" viewBox="0 0 2754 2476" fill="none" xmlns="http://www.w3.org/2000/svg">
<path opacity="0.16" d="M902.143 628.205L2643.17 812.994L1164.17 1783.27L902.143 628.205Z" fill="#5F7E54"/>
<path d="M1162.27 978.643C1177.24 963.052 1197.79 954.047 1219.4 953.609C1241.01 953.171 1261.91 961.335 1277.5 976.306C1293.09 991.277 1302.1 1011.83 1302.53 1033.44C1302.97 1055.05 1294.81 1075.95 1279.84 1091.54" stroke="#241A1E" stroke-width="3"/>
<path d="M1640.81 733.59L1614.56 745.465L1467.8 1794.78L1494.05 1782.91L1640.81 733.59Z" fill="#BB9450"/>
<path d="M1667.05 721.715L1640.81 733.59L1494.05 1782.91L1520.29 1771.03L1667.05 721.715Z" fill="#F6F1EC"/>
<path d="M882.052 1097.28L973.721 1194.72L836.631 1223.11L882.052 1097.28Z" fill="#C9A23A"/>
<path d="M1456.12 1863.58L1405.01 1987.2L1322.75 1873.92L1456.12 1863.58Z" fill="#C9A23A"/>
<path d="M1006.38 928.49L1039.34 828.799" stroke="#241A1E" stroke-width="2" stroke-linecap="round"/>
<path d="M988.884 885.842L1074.33 914.096" stroke="#241A1E" stroke-width="2" stroke-linecap="round"/>
<path d="M1034.86 937.908L1067.83 838.217" stroke="#241A1E" stroke-width="2" stroke-linecap="round"/>
<path d="M999.872 852.611L1085.32 880.866" stroke="#241A1E" stroke-width="2" stroke-linecap="round"/>
<path d="M1063.35 947.327L1096.31 847.635" stroke="#241A1E" stroke-width="2" stroke-linecap="round"/>
<path d="M1010.86 819.38L1096.31 847.635" stroke="#241A1E" stroke-width="2" stroke-linecap="round"/>
<path opacity="0.7" d="M1029 866.455L1019.58 894.938L1044.27 903.101L1053.68 874.617L1029 866.455Z" fill="#C1392A"/>
<path opacity="0.6" d="M1047.12 907.205L1037.08 937.587L1061.76 945.749L1071.81 915.367L1047.12 907.205Z" fill="#A9C1D6"/>
<path d="M1612.7 707.987L1464.5 1829.44" stroke="#241A1E" stroke-width="2" stroke-linecap="round"/>
<path d="M1582.8 698.861L1625.28 1687.8" stroke="#241A1E" stroke-width="2" stroke-linecap="round"/>
<path opacity="0.55" d="M613.44 851.078L1927.74 2350.85L-6.89678e-05 1759.13L613.44 851.078Z" fill="#BB9450"/>
<path d="M1811 1613C1827.57 1613 1841 1599.57 1841 1583C1841 1566.43 1827.57 1553 1811 1553C1794.43 1553 1781 1566.43 1781 1583C1781 1599.57 1794.43 1613 1811 1613Z" stroke="#C9A23A" stroke-width="3"/>
<path d="M931.669 2411.54C952.22 2407.28 965.428 2387.17 961.171 2366.62C956.914 2346.07 936.804 2332.86 916.253 2337.12C895.703 2341.38 882.494 2361.49 886.751 2382.04C891.008 2402.59 911.119 2415.8 931.669 2411.54Z" stroke="#C1392A" stroke-width="3"/>
<path d="M1070.89 773.647C1068.25 819.582 1103.34 858.965 1149.27 861.611C1195.21 864.257 1234.59 829.164 1237.24 783.229C1239.89 737.294 1204.79 697.911 1158.86 695.265C1112.92 692.619 1073.54 727.712 1070.89 773.647Z" fill="#F6F1EC" stroke="#241A1E" stroke-width="3"/>
<path d="M1100.52 775.354C1098.82 804.927 1121.41 830.281 1150.98 831.985C1180.55 833.688 1205.91 811.096 1207.61 781.523C1209.32 751.95 1186.72 726.595 1157.15 724.892C1127.58 723.188 1102.22 745.781 1100.52 775.354Z" fill="#F6F1EC" stroke="#5F7E54" stroke-width="5"/>
<path d="M1129.9 777.046C1129.13 790.391 1139.33 801.832 1152.67 802.601C1166.02 803.37 1177.46 793.175 1178.23 779.83C1179 766.485 1168.8 755.044 1155.46 754.276C1142.11 753.507 1130.67 763.702 1129.9 777.046Z" fill="#241A1E"/>
<path d="M1153.5 790.466C1153.24 794.892 1156.62 798.686 1161.05 798.941C1165.47 799.196 1169.27 795.815 1169.52 791.389C1169.78 786.963 1166.4 783.169 1161.97 782.914C1157.54 782.659 1153.75 786.04 1153.5 790.466Z" fill="#F6F1EC"/>
<path d="M1114.76 714.288C1113.65 733.534 1128.35 750.034 1147.6 751.143C1166.84 752.251 1183.34 737.548 1184.45 718.302C1185.56 699.057 1170.86 682.556 1151.61 681.447C1132.37 680.339 1115.87 695.042 1114.76 714.288Z" fill="#F6F1EC" stroke="#2A3D55" stroke-width="4"/>
<path d="M1148.4 735.108L1147.78 745.793" stroke="#2A3D55" stroke-width="2"/>
<path d="M1136.74 730.295L1129.48 737.917" stroke="#2A3D55" stroke-width="2"/>
<path d="M1130.64 717.761L1119.8 719.816" stroke="#2A3D55" stroke-width="2"/>
<path d="M1134 706.015L1124.83 700.127" stroke="#2A3D55" stroke-width="2"/>
<path d="M1143.93 698.547L1140.43 687.382" stroke="#2A3D55" stroke-width="2"/>
<path d="M1157.28 699.317L1162.04 688.627" stroke="#2A3D55" stroke-width="2"/>
<path d="M1166.29 707.876L1175.83 703.065" stroke="#2A3D55" stroke-width="2"/>
<path d="M1168.28 719.929L1178.81 723.216" stroke="#2A3D55" stroke-width="2"/>
<path d="M1160.78 731.679L1167.12 740.085" stroke="#2A3D55" stroke-width="2"/>
<path opacity="0.74" d="M1124.8 2398.88C1328.95 2356.59 1460.17 2156.81 1417.88 1952.65C1375.59 1748.5 1175.81 1617.28 971.652 1659.57C767.499 1701.86 636.283 1901.64 678.573 2105.8C720.862 2309.95 920.644 2441.17 1124.8 2398.88Z" fill="#C9A23A"/>
<path d="M1038.56 1897.17L992.713 1675.87C1051.41 1663.71 1112.52 1675.36 1162.62 1708.27C1212.72 1741.17 1247.7 1792.63 1259.86 1851.33L1038.56 1897.17Z" fill="#5F7E54"/>
<path d="M1038.55 1897.17L1259.86 1851.33C1272.07 1910.28 1260.46 1971.65 1227.6 2021.93C1194.73 2072.21 1143.29 2107.29 1084.6 2119.45L1038.55 1897.17Z" fill="#A9C1D6"/>
<path d="M1038.55 1897.17L1084.6 2119.45C1025.65 2131.66 964.258 2119.95 913.937 2086.9C863.616 2053.85 828.486 2002.17 816.274 1943.21L1038.55 1897.17Z" fill="#9A9A96"/>
<path d="M1038.56 1897.17L816.274 1943.21C804.116 1884.52 815.875 1823.38 848.963 1773.24C882.052 1723.11 933.76 1688.08 992.713 1675.87L1038.56 1897.17Z" fill="#BB9450"/>
<path d="M1099.85 1769.07C1269.12 1734.01 1377.91 1568.36 1342.85 1399.09C1307.79 1229.82 1142.14 1121.02 972.868 1156.09C803.596 1191.15 694.799 1356.8 729.864 1526.07C764.928 1695.34 930.575 1804.14 1099.85 1769.07Z" stroke="#F4C430" stroke-width="7"/>
<path d="M1060.5 1579.11C1124.85 1565.77 1166.21 1502.8 1152.88 1438.44C1139.55 1374.09 1076.57 1332.72 1012.22 1346.05C947.863 1359.38 906.5 1422.36 919.831 1486.72C933.162 1551.07 996.139 1592.44 1060.5 1579.11Z" fill="#F4C430"/>
<path d="M1195.57 830.245L1029.82 2014.38" stroke="#4C4C4C" stroke-width="2" stroke-linecap="round"/>
<path d="M1168.94 806.45L1003.19 1990.58" stroke="#4C4C4C" stroke-width="2" stroke-linecap="round"/>
<path d="M1142.32 782.654L976.564 1966.79" stroke="white" stroke-width="2" stroke-linecap="round"/>
<path d="M1115.69 758.858L949.939 1942.99" stroke="white" stroke-width="2" stroke-linecap="round"/>
<path d="M1082.7 788.349L1233.39 828.693" stroke="#241A1E" stroke-width="2" stroke-linecap="round"/>
<path d="M1082.26 844.133L1204.94 876.976" stroke="#241A1E" stroke-width="2" stroke-linecap="round"/>
<path d="M1289.53 1760.42C1320.09 1754.09 1339.73 1724.19 1333.4 1693.63C1327.07 1663.08 1297.17 1643.44 1266.61 1649.77C1236.06 1656.1 1216.42 1686 1222.75 1716.55C1229.08 1747.11 1258.98 1766.75 1289.53 1760.42Z" fill="#FFD60A"/>
<path d="M812.664 1745.84C843.219 1739.51 862.858 1709.61 856.529 1679.06C850.199 1648.5 820.298 1628.86 789.743 1635.19C759.188 1641.52 739.549 1671.42 745.878 1701.98C752.207 1732.53 782.109 1752.17 812.664 1745.84Z" fill="#FFD60A"/>
<path d="M1019.6 1921.52L1002.67 1892.84L973.991 1909.76L990.917 1938.45L1019.6 1921.52Z" fill="#1C0F14"/>
<path d="M1036.52 1950.2L1019.6 1921.52L990.917 1938.45L1007.84 1967.13L1036.52 1950.2Z" fill="#F6F1EC"/>
<path d="M1053.45 1978.88L1036.52 1950.2L1007.84 1967.13L1024.77 1995.81L1053.45 1978.88Z" fill="#1C0F14"/>
<path d="M1070.38 2007.57L1053.45 1978.88L1024.77 1995.81L1041.69 2024.49L1070.38 2007.57Z" fill="#F6F1EC"/>
<path d="M1087.3 2036.25L1070.38 2007.57L1041.69 2024.49L1058.62 2053.17L1087.3 2036.25Z" fill="#1C0F14"/>
<path d="M990.917 1938.45L973.991 1909.76L945.31 1926.69L962.236 1955.37L990.917 1938.45Z" fill="#F6F1EC"/>
<path d="M1007.84 1967.13L990.917 1938.45L962.236 1955.37L979.161 1984.05L1007.84 1967.13Z" fill="#1C0F14"/>
<path d="M1024.77 1995.81L1007.84 1967.13L979.161 1984.05L996.087 2012.74L1024.77 1995.81Z" fill="#F6F1EC"/>
<path d="M1041.69 2024.49L1024.77 1995.81L996.087 2012.74L1013.01 2041.42L1041.69 2024.49Z" fill="#1C0F14"/>
<path d="M1058.62 2053.17L1041.69 2024.49L1013.01 2041.42L1029.94 2070.1L1058.62 2053.17Z" fill="#F6F1EC"/>
<path d="M962.235 1955.37L945.309 1926.69L916.628 1943.62L933.553 1972.3L962.235 1955.37Z" fill="#1C0F14"/>
<path d="M979.161 1984.05L962.235 1955.37L933.553 1972.3L950.479 2000.98L979.161 1984.05Z" fill="#F6F1EC"/>
<path d="M996.087 2012.74L979.161 1984.05L950.479 2000.98L967.405 2029.66L996.087 2012.74Z" fill="#1C0F14"/>
<path d="M1013.01 2041.42L996.087 2012.74L967.406 2029.66L984.331 2058.34L1013.01 2041.42Z" fill="#F6F1EC"/>
<path d="M1029.94 2070.1L1013.01 2041.42L984.331 2058.34L1001.26 2087.02L1029.94 2070.1Z" fill="#1C0F14"/>
<path d="M766.67 1613.42C790.701 1742.42 754.606 1850.54 658.382 1937.8" stroke="#241A1E" stroke-width="6"/>
<path d="M1170.61 1663.75C1226.9 1782.28 1319.61 1848.61 1448.73 1862.74" stroke="#241A1E" stroke-width="6"/>
<path d="M1329.06 2182.45C1293.46 2182.95 1259.12 2169.3 1233.58 2144.49C1208.05 2119.68 1193.42 2085.74 1192.92 2050.14C1192.41 2014.54 1206.06 1980.2 1230.87 1954.67C1255.69 1929.14 1289.62 1914.51 1325.22 1914" stroke="#241A1E" stroke-width="3"/>
<path d="M771.91 1931.94C807.511 1931.94 841.655 1946.09 866.829 1971.26C892.003 1996.44 906.146 2030.58 906.146 2066.18C906.146 2101.78 892.003 2135.93 866.829 2161.1C841.655 2186.27 807.511 2200.42 771.91 2200.42" stroke="#241A1E" stroke-width="3"/>
</svg>
